<svg width="13" height="21" viewBox="0 0 13 21" fill="none" xmlns="http://www.w3.org/2000/svg">
<path d="M11.6864 20.0892C11.9683 19.8072 12.1266 19.4248 12.1266 19.0262C12.1266 18.6275 11.9683 18.2451 11.6864 17.9631L4.2436 10.5203L11.6864 3.07757C11.9603 2.79399 12.1118 2.41418 12.1084 2.01994C12.105 1.62571 11.9468 1.24859 11.6681 0.969809C11.3893 0.691032 11.0122 0.532902 10.6179 0.529476C10.2237 0.526051 9.84388 0.677605 9.5603 0.951494L1.05449 9.4573C0.772609 9.73927 0.614258 10.1216 0.614258 10.5203C0.614258 10.919 0.772609 11.3014 1.05449 11.5834L9.5603 20.0892C9.84226 20.3711 10.2246 20.5294 10.6233 20.5294C11.022 20.5294 11.4044 20.3711 11.6864 20.0892Z" fill="black"/>
</svg>
