<svg width="31" height="31" viewBox="0 0 31 31" fill="none" xmlns="http://www.w3.org/2000/svg">
<rect x="0.57019" y="0.0955811" width="30" height="30" rx="15" fill="#FF61BF"/>
<path fill-rule="evenodd" clip-rule="evenodd" d="M22.2681 10.2673C22.465 10.4643 22.5757 10.7315 22.5757 11.01C22.5757 11.2886 22.465 11.5558 22.2681 11.7528L14.3937 19.6272C14.2896 19.7313 14.1661 19.8138 14.0301 19.8702C13.8941 19.9265 13.7484 19.9555 13.6012 19.9555C13.454 19.9555 13.3083 19.9265 13.1723 19.8702C13.0363 19.8138 12.9128 19.7313 12.8087 19.6272L8.89641 15.7156C8.79607 15.6186 8.71604 15.5027 8.66098 15.3745C8.60592 15.2464 8.57694 15.1085 8.57572 14.969C8.57451 14.8295 8.60109 14.6912 8.65392 14.5621C8.70674 14.433 8.78475 14.3157 8.88339 14.217C8.98203 14.1184 9.09933 14.0404 9.22844 13.9876C9.35755 13.9347 9.49589 13.9082 9.63538 13.9094C9.77488 13.9106 9.91273 13.9396 10.0409 13.9946C10.1691 14.0497 10.285 14.1297 10.3819 14.2301L13.6009 17.449L20.7819 10.2673C20.8794 10.1697 20.9953 10.0922 21.1228 10.0394C21.2503 9.98655 21.387 9.95935 21.525 9.95935C21.663 9.95935 21.7997 9.98655 21.9272 10.0394C22.0547 10.0922 22.1705 10.1697 22.2681 10.2673Z" fill="white"/>
</svg>
