<svg width="31" height="31" viewBox="0 0 31 31" fill="none" xmlns="http://www.w3.org/2000/svg">
<rect x="0.57019" y="0.0266113" width="30" height="30" rx="15" fill="#D9D9D9"/>
<path fill-rule="evenodd" clip-rule="evenodd" d="M22.2681 10.1983C22.465 10.3953 22.5757 10.6625 22.5757 10.9411C22.5757 11.2197 22.465 11.4868 22.2681 11.6838L14.3937 19.5582C14.2896 19.6623 14.1661 19.7449 14.0301 19.8012C13.8941 19.8575 13.7484 19.8865 13.6012 19.8865C13.454 19.8865 13.3083 19.8575 13.1723 19.8012C13.0363 19.7449 12.9128 19.6623 12.8087 19.5582L8.89641 15.6466C8.79607 15.5497 8.71604 15.4338 8.66098 15.3056C8.60592 15.1774 8.57694 15.0395 8.57572 14.9001C8.57451 14.7606 8.60109 14.6222 8.65392 14.4931C8.70674 14.364 8.78475 14.2467 8.88339 14.1481C8.98203 14.0494 9.09933 13.9714 9.22844 13.9186C9.35755 13.8658 9.49589 13.8392 9.63538 13.8404C9.77488 13.8416 9.91273 13.8706 10.0409 13.9256C10.1691 13.9807 10.285 14.0607 10.3819 14.1611L13.6009 17.38L20.7819 10.1983C20.8794 10.1007 20.9953 10.0233 21.1228 9.97042C21.2503 9.91758 21.387 9.89038 21.525 9.89038C21.663 9.89038 21.7997 9.91758 21.9272 9.97042C22.0547 10.0233 22.1705 10.1007 22.2681 10.1983Z" fill="white"/>
</svg>
