<svg width="31" height="31" viewBox="0 0 31 31" fill="none" xmlns="http://www.w3.org/2000/svg">
<rect x="0.281494" y="0.473511" width="30" height="30" rx="15" fill="#FF6B6B"/>
<path d="M9.61116 9.80317C9.71551 9.69867 9.83945 9.61576 9.97587 9.55919C10.1123 9.50263 10.2585 9.47351 10.4062 9.47351C10.5539 9.47351 10.7002 9.50263 10.8366 9.55919C10.973 9.61576 11.0969 9.69867 11.2013 9.80317L15.2817 13.882L19.362 9.80317C19.4664 9.69876 19.5904 9.61594 19.7268 9.55943C19.8632 9.50293 20.0094 9.47384 20.1571 9.47384C20.3048 9.47384 20.451 9.50293 20.5874 9.55943C20.7238 9.61594 20.8478 9.69876 20.9522 9.80317C21.0566 9.90758 21.1394 10.0315 21.1959 10.168C21.2524 10.3044 21.2815 10.4506 21.2815 10.5982C21.2815 10.7459 21.2524 10.8921 21.1959 11.0285C21.1394 11.165 21.0566 11.2889 20.9522 11.3933L16.8733 15.4737L20.9522 19.554C21.163 19.7649 21.2815 20.0509 21.2815 20.3491C21.2815 20.6473 21.163 20.9333 20.9522 21.1442C20.7413 21.355 20.4553 21.4735 20.1571 21.4735C19.8589 21.4735 19.5729 21.355 19.362 21.1442L15.2817 17.0653L11.2013 21.1442C10.9904 21.355 10.7044 21.4735 10.4062 21.4735C10.108 21.4735 9.82202 21.355 9.61116 21.1442C9.40029 20.9333 9.28183 20.6473 9.28183 20.3491C9.28183 20.0509 9.40029 19.7649 9.61116 19.554L13.69 15.4737L9.61116 11.3933C9.50665 11.289 9.42374 11.165 9.36718 11.0286C9.31061 10.8922 9.28149 10.7459 9.28149 10.5982C9.28149 10.4506 9.31061 10.3043 9.36718 10.1679C9.42374 10.0315 9.50665 9.90753 9.61116 9.80317Z" fill="white"/>
</svg>
